<svg width="135" height="41" viewBox="0 0 135 41" fill="none" xmlns="http://www.w3.org/2000/svg">
<rect x="0.5" y="1.29846" width="134" height="39" rx="6.5" fill="black"/>
<path d="M81.5257 19.9994V22.2904H80.0896V23.7928H81.5257V28.8978C81.5257 30.641 82.3143 31.3383 84.2981 31.3383C84.6468 31.3383 84.9788 31.2967 85.2693 31.2469V29.7611C85.0203 29.786 84.8626 29.8026 84.5887 29.8026C83.7005 29.8026 83.3104 29.3876 83.3104 28.4413V23.7928H85.2693V22.2904H83.3104V19.9994H81.5257Z" fill="white"/>
<path d="M90.3232 31.4628C92.9628 31.4628 94.5815 29.6947 94.5815 26.7645C94.5815 23.8509 92.9545 22.0746 90.3232 22.0746C87.6835 22.0746 86.0566 23.8509 86.0566 26.7645C86.0566 29.6947 87.6752 31.4628 90.3232 31.4628ZM90.3232 29.8773C88.7709 29.8773 87.8994 28.7401 87.8994 26.7645C87.8994 24.8055 88.7709 23.66 90.3232 23.66C91.8671 23.66 92.747 24.8055 92.747 26.7645C92.747 28.7318 91.8671 29.8773 90.3232 29.8773Z" fill="white"/>
<path d="M95.9664 31.2884H97.7511V25.951C97.7511 24.681 98.7056 23.826 100.059 23.826C100.374 23.826 100.905 23.8841 101.055 23.934V22.1742C100.864 22.1244 100.524 22.0995 100.258 22.0995C99.0792 22.0995 98.0748 22.7469 97.8175 23.6351H97.6846V22.2489H95.9664V31.2884Z" fill="white"/>
<path d="M105.486 23.5936C106.806 23.5936 107.669 24.515 107.711 25.9344H103.145C103.245 24.5233 104.166 23.5936 105.486 23.5936ZM107.702 28.848C107.37 29.5536 106.632 29.9437 105.552 29.9437C104.125 29.9437 103.203 28.9393 103.145 27.3539V27.2543H109.529V26.6317C109.529 23.7928 108.009 22.0746 105.494 22.0746C102.946 22.0746 101.327 23.9091 101.327 26.7977C101.327 29.6864 102.913 31.4628 105.503 31.4628C107.57 31.4628 109.014 30.4667 109.421 28.848H107.702Z" fill="white"/>
<path d="M69.8221 27.9503C69.9598 30.17 71.8095 31.5896 74.5626 31.5896C77.505 31.5896 79.3462 30.1012 79.3462 27.7266C79.3462 25.8596 78.2966 24.8272 75.7499 24.2336L74.382 23.898C72.7645 23.5195 72.1106 23.0119 72.1106 22.1257C72.1106 21.0072 73.1259 20.2759 74.6487 20.2759C76.0941 20.2759 77.0921 20.99 77.2727 22.1343H79.1483C79.0365 20.0436 77.1953 18.5724 74.6745 18.5724C71.9644 18.5724 70.1576 20.0436 70.1576 22.2548C70.1576 24.0787 71.1815 25.1627 73.427 25.6876L75.0272 26.0747C76.6705 26.4619 77.3932 27.0297 77.3932 27.9761C77.3932 29.0773 76.2575 29.8775 74.7089 29.8775C73.0484 29.8775 71.8955 29.129 71.7321 27.9503H69.8221Z" fill="white"/>
<path d="M51.3348 22.0995C50.1063 22.0995 49.0437 22.7137 48.4959 23.743H48.3631V22.2489H46.6448V34.2933H48.4295V29.9188H48.5706C49.0437 30.8734 50.0647 31.4379 51.3514 31.4379C53.6341 31.4379 55.0867 29.6366 55.0867 26.7645C55.0867 23.8924 53.6341 22.0995 51.3348 22.0995ZM50.8284 29.8358C49.3343 29.8358 48.3963 28.6571 48.3963 26.7728C48.3963 24.8802 49.3343 23.7015 50.8367 23.7015C52.3475 23.7015 53.2522 24.8553 53.2522 26.7645C53.2522 28.682 52.3475 29.8358 50.8284 29.8358Z" fill="white"/>
<path d="M61.3316 22.0995C60.103 22.0995 59.0405 22.7137 58.4927 23.743H58.3599V22.2489H56.6416V34.2933H58.4263V29.9188H58.5674C59.0405 30.8734 60.0615 31.4379 61.3482 31.4379C63.6309 31.4379 65.0835 29.6366 65.0835 26.7645C65.0835 23.8924 63.6309 22.0995 61.3316 22.0995ZM60.8252 29.8358C59.3311 29.8358 58.3931 28.6571 58.3931 26.7728C58.3931 24.8802 59.3311 23.7015 60.8335 23.7015C62.3443 23.7015 63.249 24.8553 63.249 26.7645C63.249 28.682 62.3443 29.8358 60.8252 29.8358Z" fill="white"/>
<path d="M43.4428 31.2884H45.4905L41.008 18.8736H38.9346L34.4521 31.2884H36.431L37.5752 27.9933H42.3072L43.4428 31.2884ZM39.8724 21.1277H40.0186L41.8168 26.3758H38.0656L39.8724 21.1277Z" fill="white"/>
<path d="M35.6514 9.5094V15.4984H37.8137C39.5984 15.4984 40.6318 14.3986 40.6318 12.4852C40.6318 10.601 39.5901 9.5094 37.8137 9.5094H35.6514ZM36.5811 10.3561H37.71C38.9509 10.3561 39.6855 11.1447 39.6855 12.4977C39.6855 13.8715 38.9634 14.6517 37.71 14.6517H36.5811V10.3561Z" fill="white"/>
<path d="M43.7969 15.5856C45.1167 15.5856 45.9261 14.7015 45.9261 13.2365C45.9261 11.7797 45.1126 10.8915 43.7969 10.8915C42.4771 10.8915 41.6636 11.7797 41.6636 13.2365C41.6636 14.7015 42.4729 15.5856 43.7969 15.5856ZM43.7969 14.7928C43.0208 14.7928 42.585 14.2242 42.585 13.2365C42.585 12.257 43.0208 11.6842 43.7969 11.6842C44.5689 11.6842 45.0088 12.257 45.0088 13.2365C45.0088 14.2201 44.5689 14.7928 43.7969 14.7928Z" fill="white"/>
<path d="M52.8182 10.9786H51.9259L51.1207 14.4276H51.0501L50.1205 10.9786H49.2655L48.3358 14.4276H48.2694L47.4601 10.9786H46.5553L47.8004 15.4984H48.7176L49.6473 12.1698H49.7179L50.6517 15.4984H51.5772L52.8182 10.9786Z" fill="white"/>
<path d="M53.8458 15.4984H54.7382V12.8546C54.7382 12.149 55.1574 11.7091 55.8173 11.7091C56.4772 11.7091 56.7926 12.0702 56.7926 12.7965V15.4984H57.685V12.5724C57.685 11.4974 57.1288 10.8915 56.1203 10.8915C55.4396 10.8915 54.9914 11.1945 54.7714 11.6967H54.705V10.9786H53.8458V15.4984Z" fill="white"/>
<path d="M59.0903 15.4984H59.9826V9.21472H59.0903V15.4984Z" fill="white"/>
<path d="M63.3386 15.5856C64.6584 15.5856 65.4678 14.7015 65.4678 13.2365C65.4678 11.7797 64.6543 10.8915 63.3386 10.8915C62.0188 10.8915 61.2053 11.7797 61.2053 13.2365C61.2053 14.7015 62.0146 15.5856 63.3386 15.5856ZM63.3386 14.7928C62.5625 14.7928 62.1267 14.2242 62.1267 13.2365C62.1267 12.257 62.5625 11.6842 63.3386 11.6842C64.1106 11.6842 64.5505 12.257 64.5505 13.2365C64.5505 14.2201 64.1106 14.7928 63.3386 14.7928Z" fill="white"/>
<path d="M68.1265 14.8219C67.6409 14.8219 67.2881 14.5853 67.2881 14.1786C67.2881 13.7802 67.5704 13.5685 68.1929 13.527L69.2969 13.4564V13.8341C69.2969 14.3944 68.7989 14.8219 68.1265 14.8219ZM67.8982 15.5731C68.4917 15.5731 68.9856 15.3158 69.2554 14.8634H69.326V15.4984H70.1851V12.4105C70.1851 11.4559 69.5459 10.8915 68.4129 10.8915C67.3877 10.8915 66.6573 11.3895 66.566 12.1656H67.4292C67.5289 11.8461 67.8733 11.6635 68.3714 11.6635C68.9815 11.6635 69.2969 11.9332 69.2969 12.4105V12.8007L68.0726 12.8712C66.9976 12.9376 66.3916 13.4066 66.3916 14.2201C66.3916 15.046 67.0267 15.5731 67.8982 15.5731Z" fill="white"/>
<path d="M73.2132 15.5731C73.8358 15.5731 74.3629 15.2784 74.6327 14.7845H74.7032V15.4984H75.5582V9.21472H74.6659V11.6967H74.5995C74.3546 11.1986 73.8316 10.9039 73.2132 10.9039C72.0719 10.9039 71.3373 11.8087 71.3373 13.2365C71.3373 14.6683 72.0636 15.5731 73.2132 15.5731ZM73.4664 11.705C74.2135 11.705 74.6825 12.2985 74.6825 13.2406C74.6825 14.1869 74.2176 14.7721 73.4664 14.7721C72.711 14.7721 72.2586 14.1952 72.2586 13.2365C72.2586 12.286 72.7152 11.705 73.4664 11.705Z" fill="white"/>
<path d="M81.3447 15.5856C82.6645 15.5856 83.4738 14.7015 83.4738 13.2365C83.4738 11.7797 82.6604 10.8915 81.3447 10.8915C80.0249 10.8915 79.2114 11.7797 79.2114 13.2365C79.2114 14.7015 80.0207 15.5856 81.3447 15.5856ZM81.3447 14.7928C80.5686 14.7928 80.1328 14.2242 80.1328 13.2365C80.1328 12.257 80.5686 11.6842 81.3447 11.6842C82.1166 11.6842 82.5566 12.257 82.5566 13.2365C82.5566 14.2201 82.1166 14.7928 81.3447 14.7928Z" fill="white"/>
<path d="M84.655 15.4984H85.5474V12.8546C85.5474 12.149 85.9666 11.7091 86.6265 11.7091C87.2864 11.7091 87.6018 12.0702 87.6018 12.7965V15.4984H88.4941V12.5724C88.4941 11.4974 87.938 10.8915 86.9294 10.8915C86.2488 10.8915 85.8005 11.1945 85.5806 11.6967H85.5142V10.9786H84.655V15.4984Z" fill="white"/>
<path d="M92.6039 9.85388V10.9994H91.8858V11.7506H92.6039V14.3031C92.6039 15.1747 92.9981 15.5233 93.9901 15.5233C94.1644 15.5233 94.3304 15.5026 94.4757 15.4777V14.7347C94.3512 14.7472 94.2723 14.7555 94.1353 14.7555C93.6913 14.7555 93.4962 14.548 93.4962 14.0748V11.7506H94.4757V10.9994H93.4962V9.85388H92.6039Z" fill="white"/>
<path d="M95.6735 15.4984H96.5658V12.8588C96.5658 12.174 96.9726 11.7133 97.703 11.7133C98.3339 11.7133 98.6701 12.0785 98.6701 12.8007V15.4984H99.5624V12.5807C99.5624 11.5057 98.9689 10.8956 98.006 10.8956C97.3253 10.8956 96.848 11.1986 96.6281 11.705H96.5575V9.21472H95.6735V15.4984Z" fill="white"/>
<path d="M102.781 11.651C103.441 11.651 103.873 12.1117 103.894 12.8214H101.611C101.661 12.1158 102.122 11.651 102.781 11.651ZM103.89 14.2782C103.724 14.631 103.354 14.826 102.815 14.826C102.101 14.826 101.64 14.3239 101.611 13.5311V13.4813H104.803V13.17C104.803 11.7506 104.043 10.8915 102.786 10.8915C101.511 10.8915 100.702 11.8087 100.702 13.2531C100.702 14.6974 101.495 15.5856 102.79 15.5856C103.823 15.5856 104.545 15.0875 104.749 14.2782H103.89Z" fill="white"/>
<path d="M24.769 21.0993C24.7907 19.4183 25.6934 17.8277 27.1256 16.9472C26.2221 15.6569 24.7088 14.8388 23.1344 14.7895C21.4552 14.6133 19.8272 15.7944 18.9715 15.7944C18.0992 15.7944 16.7817 14.807 15.363 14.8362C13.5137 14.896 11.7898 15.9474 10.8901 17.5641C8.95607 20.9125 10.3987 25.8336 12.2513 28.5402C13.1782 29.8655 14.2615 31.346 15.6789 31.2935C17.066 31.236 17.584 30.409 19.2583 30.409C20.9171 30.409 21.4031 31.2935 22.8493 31.2601C24.3377 31.2359 25.2754 29.9289 26.1698 28.591C26.8358 27.6466 27.3483 26.6029 27.6882 25.4985C25.9391 24.7587 24.771 22.9984 24.769 21.0993Z" fill="white"/>
<path d="M22.0373 13.0095C22.8489 12.0353 23.2487 10.7832 23.1518 9.51892C21.912 9.64914 20.7668 10.2417 19.9443 11.1785C19.14 12.0939 18.7214 13.324 18.8006 14.5399C20.0408 14.5527 21.2601 13.9762 22.0373 13.0095Z" fill="white"/>
<rect x="0.5" y="1.29846" width="134" height="39" rx="6.5" stroke="#A6A6A6"/>
</svg>
