<svg width="135" height="41" viewBox="0 0 135 41" fill="none" xmlns="http://www.w3.org/2000/svg">
<rect x="0.5" y="1.29846" width="134" height="39" rx="4.5" fill="black"/>
<path d="M68.136 22.5496C65.784 22.5496 63.867 24.3386 63.867 26.8026C63.867 29.2516 65.784 31.0556 68.136 31.0556C70.489 31.0556 72.406 29.2516 72.406 26.8026C72.405 24.3386 70.488 22.5496 68.136 22.5496ZM68.136 29.3816C66.847 29.3816 65.736 28.3186 65.736 26.8036C65.736 25.2726 66.848 24.2256 68.136 24.2256C69.425 24.2256 70.536 25.2726 70.536 26.8036C70.536 28.3176 69.425 29.3816 68.136 29.3816ZM58.822 22.5496C56.47 22.5496 54.553 24.3386 54.553 26.8026C54.553 29.2516 56.47 31.0556 58.822 31.0556C61.175 31.0556 63.092 29.2516 63.092 26.8026C63.092 24.3386 61.175 22.5496 58.822 22.5496ZM58.822 29.3816C57.533 29.3816 56.422 28.3186 56.422 26.8036C56.422 25.2726 57.534 24.2256 58.822 24.2256C60.111 24.2256 61.222 25.2726 61.222 26.8036C61.223 28.3176 60.111 29.3816 58.822 29.3816ZM47.744 23.8556V25.6596H52.062C51.933 26.6746 51.595 27.4156 51.079 27.9306C50.451 28.5586 49.468 29.2516 47.744 29.2516C45.086 29.2516 43.008 27.1086 43.008 24.4506C43.008 21.7926 45.086 19.6496 47.744 19.6496C49.178 19.6496 50.225 20.2136 50.998 20.9386L52.271 19.6656C51.191 18.6346 49.758 17.8456 47.744 17.8456C44.103 17.8456 41.042 20.8096 41.042 24.4506C41.042 28.0916 44.103 31.0556 47.744 31.0556C49.709 31.0556 51.192 30.4106 52.351 29.2026C53.543 28.0106 53.914 26.3346 53.914 24.9816C53.914 24.5636 53.882 24.1766 53.817 23.8546H47.744V23.8556ZM93.052 25.2566C92.698 24.3066 91.618 22.5496 89.411 22.5496C87.22 22.5496 85.399 24.2736 85.399 26.8026C85.399 29.1866 87.204 31.0556 89.62 31.0556C91.569 31.0556 92.697 29.8636 93.165 29.1706L91.715 28.2036C91.232 28.9126 90.571 29.3796 89.62 29.3796C88.67 29.3796 87.993 28.9446 87.558 28.0906L93.245 25.7386L93.052 25.2566ZM87.252 26.6746C87.204 25.0306 88.525 24.1936 89.476 24.1936C90.217 24.1936 90.845 24.5646 91.055 25.0956L87.252 26.6746ZM82.629 30.7986H84.497V18.2976H82.629V30.7986ZM79.567 23.5006H79.503C79.084 23.0006 78.278 22.5496 77.264 22.5496C75.137 22.5496 73.188 24.4186 73.188 26.8196C73.188 29.2036 75.137 31.0566 77.264 31.0566C78.279 31.0566 79.084 30.6056 79.503 30.0906H79.567V30.7026C79.567 32.3296 78.697 33.1996 77.296 33.1996C76.152 33.1996 75.443 32.3786 75.153 31.6856L73.526 32.3626C73.993 33.4896 75.233 34.8756 77.296 34.8756C79.487 34.8756 81.34 33.5866 81.34 30.4446V22.8086H79.568V23.5006H79.567ZM77.425 29.3816C76.136 29.3816 75.057 28.3016 75.057 26.8196C75.057 25.3206 76.136 24.2256 77.425 24.2256C78.697 24.2256 79.696 25.3206 79.696 26.8196C79.696 28.3016 78.697 29.3816 77.425 29.3816ZM101.806 18.2976H97.335V30.7986H99.2V26.0626H101.805C103.873 26.0626 105.907 24.5656 105.907 22.1806C105.907 19.7956 103.874 18.2976 101.806 18.2976ZM101.854 24.3226H99.2V20.0376H101.854C103.249 20.0376 104.041 21.1926 104.041 22.1806C104.041 23.1486 103.249 24.3226 101.854 24.3226ZM113.386 22.5276C112.035 22.5276 110.636 23.1226 110.057 24.4416L111.713 25.1326C112.067 24.4416 112.727 24.2156 113.418 24.2156C114.383 24.2156 115.364 24.7946 115.38 25.8236V25.9526C115.042 25.7596 114.318 25.4706 113.434 25.4706C111.649 25.4706 109.831 26.4516 109.831 28.2846C109.831 29.9576 111.295 31.0346 112.935 31.0346C114.189 31.0346 114.881 30.4716 115.315 29.8116H115.379V30.7766H117.181V25.9836C117.182 23.7656 115.524 22.5276 113.386 22.5276ZM113.16 29.3786C112.55 29.3786 111.697 29.0726 111.697 28.3166C111.697 27.3516 112.759 26.9816 113.676 26.9816C114.495 26.9816 114.882 27.1586 115.38 27.3996C115.235 28.5586 114.238 29.3786 113.16 29.3786ZM123.743 22.8006L121.604 28.2206H121.54L119.32 22.8006H117.31L120.639 30.3756L118.741 34.5896H120.687L125.818 22.8006H123.743ZM106.937 30.7986H108.802V18.2976H106.937V30.7986Z" fill="white"/>
<path d="M47.4176 11.0414C47.4176 11.8794 47.1696 12.5464 46.6726 13.0444C46.1086 13.6364 45.3726 13.9324 44.4686 13.9324C43.6026 13.9324 42.8656 13.6324 42.2606 13.0324C41.6546 12.4314 41.3516 11.6874 41.3516 10.7994C41.3516 9.9104 41.6546 9.16641 42.2606 8.56641C42.8656 7.96541 43.6026 7.66541 44.4686 7.66541C44.8986 7.66541 45.3096 7.74941 45.6996 7.91641C46.0906 8.08441 46.4036 8.30741 46.6376 8.58641L46.1106 9.11441C45.7136 8.63941 45.1666 8.40241 44.4676 8.40241C43.8356 8.40241 43.2896 8.62441 42.8286 9.06841C42.3676 9.51241 42.1376 10.0894 42.1376 10.7984C42.1376 11.5074 42.3676 12.0844 42.8286 12.5284C43.2896 12.9724 43.8356 13.1944 44.4676 13.1944C45.1376 13.1944 45.6966 12.9714 46.1436 12.5244C46.4336 12.2334 46.6016 11.8284 46.6466 11.3094H44.4676V10.5884H47.3746C47.4046 10.7454 47.4176 10.8964 47.4176 11.0414Z" fill="white"/>
<path d="M52.0277 8.53546H49.2957V10.4375H51.7597V11.1585H49.2957V13.0605H52.0277V13.7985H48.5247V7.79846H52.0277V8.53546Z" fill="white"/>
<path d="M55.2785 13.7985H54.5075V8.53546H52.8315V7.79846H56.9545V8.53546H55.2785V13.7985Z" fill="white"/>
<path d="M59.9375 13.7985V7.79846H60.7085V13.7985H59.9375Z" fill="white"/>
<path d="M64.1277 13.7985H63.3567V8.53546H61.6807V7.79846H65.8037V8.53546H64.1277V13.7985Z" fill="white"/>
<path d="M73.6084 13.0235C73.0184 13.6295 72.2854 13.9325 71.4084 13.9325C70.5314 13.9325 69.7984 13.6295 69.2094 13.0235C68.6194 12.4175 68.3254 11.6755 68.3254 10.7985C68.3254 9.92145 68.6194 9.17945 69.2094 8.57345C69.7984 7.96745 70.5314 7.66345 71.4084 7.66345C72.2804 7.66345 73.0124 7.96845 73.6044 8.57745C74.1964 9.18645 74.4924 9.92645 74.4924 10.7985C74.4924 11.6755 74.1974 12.4175 73.6084 13.0235ZM69.7784 12.5205C70.2224 12.9705 70.7654 13.1945 71.4084 13.1945C72.0514 13.1945 72.5954 12.9695 73.0384 12.5205C73.4824 12.0705 73.7054 11.4965 73.7054 10.7985C73.7054 10.1005 73.4824 9.52645 73.0384 9.07645C72.5954 8.62645 72.0514 8.40245 71.4084 8.40245C70.7654 8.40245 70.2224 8.62745 69.7784 9.07645C69.3354 9.52645 69.1124 10.1005 69.1124 10.7985C69.1124 11.4965 69.3354 12.0705 69.7784 12.5205Z" fill="white"/>
<path d="M75.5745 13.7985V7.79846H76.5125L79.4285 12.4655H79.4615L79.4285 11.3095V7.79846H80.1995V13.7985H79.3945L76.3435 8.90446H76.3105L76.3435 10.0605V13.7985H75.5745Z" fill="white"/>
<path d="M47.4176 11.0414C47.4176 11.8794 47.1696 12.5464 46.6726 13.0444C46.1086 13.6364 45.3726 13.9324 44.4686 13.9324C43.6026 13.9324 42.8656 13.6324 42.2606 13.0324C41.6546 12.4314 41.3516 11.6874 41.3516 10.7994C41.3516 9.9104 41.6546 9.16641 42.2606 8.56641C42.8656 7.96541 43.6026 7.66541 44.4686 7.66541C44.8986 7.66541 45.3096 7.74941 45.6996 7.91641C46.0906 8.08441 46.4036 8.30741 46.6376 8.58641L46.1106 9.11441C45.7136 8.63941 45.1666 8.40241 44.4676 8.40241C43.8356 8.40241 43.2896 8.62441 42.8286 9.06841C42.3676 9.51241 42.1376 10.0894 42.1376 10.7984C42.1376 11.5074 42.3676 12.0844 42.8286 12.5284C43.2896 12.9724 43.8356 13.1944 44.4676 13.1944C45.1376 13.1944 45.6966 12.9714 46.1436 12.5244C46.4336 12.2334 46.6016 11.8284 46.6466 11.3094H44.4676V10.5884H47.3746C47.4046 10.7454 47.4176 10.8964 47.4176 11.0414Z" stroke="white" stroke-width="0.2" stroke-miterlimit="10"/>
<path d="M52.0277 8.53546H49.2957V10.4375H51.7597V11.1585H49.2957V13.0605H52.0277V13.7985H48.5247V7.79846H52.0277V8.53546Z" stroke="white" stroke-width="0.2" stroke-miterlimit="10"/>
<path d="M55.2785 13.7985H54.5075V8.53546H52.8315V7.79846H56.9545V8.53546H55.2785V13.7985Z" stroke="white" stroke-width="0.2" stroke-miterlimit="10"/>
<path d="M59.9375 13.7985V7.79846H60.7085V13.7985H59.9375Z" stroke="white" stroke-width="0.2" stroke-miterlimit="10"/>
<path d="M64.1277 13.7985H63.3567V8.53546H61.6807V7.79846H65.8037V8.53546H64.1277V13.7985Z" stroke="white" stroke-width="0.2" stroke-miterlimit="10"/>
<path d="M73.6084 13.0235C73.0184 13.6295 72.2854 13.9325 71.4084 13.9325C70.5314 13.9325 69.7984 13.6295 69.2094 13.0235C68.6194 12.4175 68.3254 11.6755 68.3254 10.7985C68.3254 9.92145 68.6194 9.17945 69.2094 8.57345C69.7984 7.96745 70.5314 7.66345 71.4084 7.66345C72.2804 7.66345 73.0124 7.96845 73.6044 8.57745C74.1964 9.18645 74.4924 9.92645 74.4924 10.7985C74.4924 11.6755 74.1974 12.4175 73.6084 13.0235ZM69.7784 12.5205C70.2224 12.9705 70.7654 13.1945 71.4084 13.1945C72.0514 13.1945 72.5954 12.9695 73.0384 12.5205C73.4824 12.0705 73.7054 11.4965 73.7054 10.7985C73.7054 10.1005 73.4824 9.52645 73.0384 9.07645C72.5954 8.62645 72.0514 8.40245 71.4084 8.40245C70.7654 8.40245 70.2224 8.62745 69.7784 9.07645C69.3354 9.52645 69.1124 10.1005 69.1124 10.7985C69.1124 11.4965 69.3354 12.0705 69.7784 12.5205Z" stroke="white" stroke-width="0.2" stroke-miterlimit="10"/>
<path d="M75.5745 13.7985V7.79846H76.5125L79.4285 12.4655H79.4615L79.4285 11.3095V7.79846H80.1995V13.7985H79.3945L76.3435 8.90446H76.3105L76.3435 10.0605V13.7985H75.5745Z" stroke="white" stroke-width="0.2" stroke-miterlimit="10"/>
<g filter="url(#filter0_ii_85_10470)">
<path d="M10.4357 8.33646C10.1447 8.64446 9.97266 9.12246 9.97266 9.74146V31.8575C9.97266 32.4775 10.1447 32.9545 10.4357 33.2625L10.5097 33.3345L22.8987 20.9455V20.7995V20.6535L10.5097 8.26346L10.4357 8.33646Z" fill="url(#paint0_linear_85_10470)"/>
<path d="M27.0274 25.0765L22.8984 20.9455V20.7995V20.6535L27.0284 16.5235L27.1214 16.5765L32.0144 19.3565C33.4114 20.1505 33.4114 21.4495 32.0144 22.2445L27.1214 25.0245L27.0274 25.0765Z" fill="url(#paint1_linear_85_10470)"/>
<g filter="url(#filter1_i_85_10470)">
<path d="M27.1215 25.0235L22.8975 20.7995L10.4355 33.2625C10.8955 33.7505 11.6565 33.8105 12.5135 33.3245L27.1215 25.0235Z" fill="url(#paint2_linear_85_10470)"/>
</g>
<path d="M27.1215 16.5755L12.5135 8.27547C11.6565 7.78847 10.8955 7.84947 10.4355 8.33747L22.8985 20.8005L27.1215 16.5755Z" fill="url(#paint3_linear_85_10470)"/>
</g>
<rect x="0.5" y="1.29846" width="134" height="39" rx="4.5" stroke="#A6A6A6"/>
<defs>
<filter id="filter0_ii_85_10470" x="9.97266" y="7.93939" width="23.0898" height="25.7208" filterUnits="userSpaceOnUse" color-interpolation-filters="sRGB">
<feFlood flood-opacity="0" result="BackgroundImageFix"/>
<feBlend mode="normal" in="SourceGraphic" in2="BackgroundImageFix" result="shape"/>
<feColorMatrix in="SourceAlpha" type="matrix" values="0 0 0 0 0 0 0 0 0 0 0 0 0 0 0 0 0 0 127 0" result="hardAlpha"/>
<feOffset dy="-0.15"/>
<feComposite in2="hardAlpha" operator="arithmetic" k2="-1" k3="1"/>
<feColorMatrix type="matrix" values="0 0 0 0 0 0 0 0 0 0 0 0 0 0 0 0 0 0 0.12 0"/>
<feBlend mode="normal" in2="shape" result="effect1_innerShadow_85_10470"/>
<feColorMatrix in="SourceAlpha" type="matrix" values="0 0 0 0 0 0 0 0 0 0 0 0 0 0 0 0 0 0 127 0" result="hardAlpha"/>
<feOffset dy="0.15"/>
<feComposite in2="hardAlpha" operator="arithmetic" k2="-1" k3="1"/>
<feColorMatrix type="matrix" values="0 0 0 0 1 0 0 0 0 1 0 0 0 0 1 0 0 0 0.25 0"/>
<feBlend mode="normal" in2="effect1_innerShadow_85_10470" result="effect2_innerShadow_85_10470"/>
</filter>
<filter id="filter1_i_85_10470" x="10.4355" y="20.7995" width="16.6855" height="12.8607" filterUnits="userSpaceOnUse" color-interpolation-filters="sRGB">
<feFlood flood-opacity="0" result="BackgroundImageFix"/>
<feBlend mode="normal" in="SourceGraphic" in2="BackgroundImageFix" result="shape"/>
<feColorMatrix in="SourceAlpha" type="matrix" values="0 0 0 0 0 0 0 0 0 0 0 0 0 0 0 0 0 0 127 0" result="hardAlpha"/>
<feOffset dy="-0.15"/>
<feComposite in2="hardAlpha" operator="arithmetic" k2="-1" k3="1"/>
<feColorMatrix type="matrix" values="0 0 0 0 0 0 0 0 0 0 0 0 0 0 0 0 0 0 0.08 0"/>
<feBlend mode="normal" in2="shape" result="effect1_innerShadow_85_10470"/>
</filter>
<linearGradient id="paint0_linear_85_10470" x1="21.8005" y1="9.50746" x2="5.01846" y2="26.2895" gradientUnits="userSpaceOnUse">
<stop stop-color="#00A0FF"/>
<stop offset="0.0066" stop-color="#00A1FF"/>
<stop offset="0.2601" stop-color="#00BEFF"/>
<stop offset="0.5122" stop-color="#00D2FF"/>
<stop offset="0.7604" stop-color="#00DFFF"/>
<stop offset="1" stop-color="#00E3FF"/>
</linearGradient>
<linearGradient id="paint1_linear_85_10470" x1="33.8329" y1="20.7995" x2="9.63704" y2="20.7995" gradientUnits="userSpaceOnUse">
<stop stop-color="#FFE000"/>
<stop offset="0.4087" stop-color="#FFBD00"/>
<stop offset="0.7754" stop-color="#FFA500"/>
<stop offset="1" stop-color="#FF9C00"/>
</linearGradient>
<linearGradient id="paint2_linear_85_10470" x1="24.8276" y1="23.0934" x2="2.06915" y2="45.8519" gradientUnits="userSpaceOnUse">
<stop stop-color="#FF3A44"/>
<stop offset="1" stop-color="#C31162"/>
</linearGradient>
<linearGradient id="paint3_linear_85_10470" x1="7.29695" y1="0.975268" x2="17.4592" y2="11.1376" gradientUnits="userSpaceOnUse">
<stop stop-color="#32A071"/>
<stop offset="0.0685" stop-color="#2DA771"/>
<stop offset="0.4762" stop-color="#15CF74"/>
<stop offset="0.8009" stop-color="#06E775"/>
<stop offset="1" stop-color="#00F076"/>
</linearGradient>
</defs>
</svg>
